<svg viewBox="0 0 512 512" xmlns="http://www.w3.org/2000/svg">
  <defs>
    <linearGradient id="grad1" x1="0%" y1="0%" x2="100%" y2="100%">
      <stop offset="0%" style="stop-color:#667eea;stop-opacity:1" />
      <stop offset="100%" style="stop-color:#764ba2;stop-opacity:1" />
    </linearGradient>
    <linearGradient id="grad2" x1="0%" y1="0%" x2="100%" y2="100%">
      <stop offset="0%" style="stop-color:#f093fb;stop-opacity:1" />
      <stop offset="100%" style="stop-color:#f5576c;stop-opacity:1" />
    </linearGradient>
  </defs>
  
  <!-- Background circle -->
  <circle cx="256" cy="256" r="250" fill="url(#grad1)" opacity="0.1"/>
  
  <!-- Central nucleus -->
  <circle cx="256" cy="256" r="45" fill="url(#grad1)"/>
  <circle cx="256" cy="256" r="38" fill="#667eea"/>
  
  <!-- Electron orbit 1 (rotated) -->
  <ellipse cx="256" cy="256" rx="120" ry="80" fill="none" stroke="url(#grad2)" stroke-width="3" opacity="0.8" transform="rotate(0 256 256)" stroke-dasharray="5,5"/>
  
  <!-- Electron orbit 2 (rotated 60 degrees) -->
  <ellipse cx="256" cy="256" rx="120" ry="80" fill="none" stroke="url(#grad2)" stroke-width="3" opacity="0.6" transform="rotate(60 256 256)" stroke-dasharray="5,5"/>
  
  <!-- Electron orbit 3 (rotated 120 degrees) -->
  <ellipse cx="256" cy="256" rx="120" ry="80" fill="none" stroke="url(#grad2)" stroke-width="3" opacity="0.4" transform="rotate(120 256 256)" stroke-dasharray="5,5"/>
  
  <!-- Electron 1 -->
  <circle cx="376" cy="256" r="8" fill="#f093fb"/>
  <circle cx="376" cy="256" r="5" fill="#fff"/>
  
  <!-- Electron 2 -->
  <circle cx="168" cy="192" r="8" fill="#f5576c"/>
  <circle cx="168" cy="192" r="5" fill="#fff"/>
  
  <!-- Electron 3 -->
  <circle cx="168" cy="320" r="8" fill="#f093fb"/>
  <circle cx="168" cy="320" r="5" fill="#fff"/>
  
  <!-- Wave pattern accent -->
  <path d="M 100 256 Q 120 240 140 256 T 180 256" fill="none" stroke="#667eea" stroke-width="2" opacity="0.6"/>
  <path d="M 332 256 Q 352 240 372 256 T 412 256" fill="none" stroke="#f5576c" stroke-width="2" opacity="0.6"/>
  
  <!-- Center dot for emphasis -->
  <circle cx="256" cy="256" r="12" fill="#fff" opacity="0.8"/>
</svg>
